# xmcd CD database file
#
# Track frame offsets:
#	150
#	22512
#	36515
#	53870
#	66327
#	76727
#	91427
#	104322
#	122752
#	135290
#	152907
#	171130
#	188895
#	207900
#
# Disc length: 3069 seconds
#
# Revision: 2
# Processed by: cddbd v1.5.2PL0 Copyright (c) Steve Scherf et al.
# Submitted via: CDex 1.70beta2
#
DISCID=b30bfb0e
DTITLE=Various Artist - 愛こそはすべて - Beatles Covers
DYEAR=1991
DGENRE=J-ROCK
TTITLE0=ALL YOU NEED IS LOVE - Various
TTITLE1=DRIVE MY CAR - 小原礼
TTITLE2=WE CAN WORK IT OUT - 高橋幸宏
TTITLE3=IN MY LIFE - 高野寛
TTITLE4=I WANNA BE YOUR MAN - THE PRIVATES
TTITLE5=THE FOOL ON THE HILL - 桐島かれん
TTITLE6=FOR NO ONE - 佐木伸誘
TTITLE7=YESTERDAY - AKIHABARA ELECTRIC CIRCUS featuring BILL CHAMPLIN
TTITLE8=BIRTHDAY - PaPa
TTITLE9=TILL THERE WAS YOU - 和田加奈子
TTITLE10=COME TOGETHER - 田中一郎
TTITLE11=MONEY - Marcy
TTITLE12=THIS BOY - 村田和人
TTITLE13=ALL YOU NEED IS LOVE(REPRISE) - Various
EXTD=YEAR: 1991
EXTT0=
EXTT1=
EXTT2=
EXTT3=
EXTT4=
EXTT5=
EXTT6=
EXTT7=
EXTT8=
EXTT9=
EXTT10=
EXTT11=
EXTT12=
EXTT13=
PLAYORDER=
